REM DIRINDEX 1\4,1\2\5,1\2\6,1\3\7,1\3\8
REM DIRNAME folder01,folder02,folder03,folder04,folder05,folder06,folder07,folder08
TITLE ""
FILE "094_Day47_Check3_Sentences.mp3" MP3
  TRACK 01 AUDIO
    TITLE "0:"
    INDEX 01 00:00:00
  TRACK 02 AUDIO
    TITLE "4:cjc124_3072"
    INDEX 01 00:00:25
  TRACK 03 AUDIO
    TITLE "0:"
    INDEX 01 00:02:00
  TRACK 04 AUDIO
    TITLE "7:cjc124_3073"
    INDEX 01 00:02:47
  TRACK 05 AUDIO
    TITLE "0:"
    INDEX 01 00:05:61
  TRACK 06 AUDIO
    TITLE "8:cjc124_3074"
    INDEX 01 00:06:06
  TRACK 07 AUDIO
    TITLE "0:"
    INDEX 01 00:09:20
  TRACK 08 AUDIO
    TITLE "7:cjc124_3075"
    INDEX 01 00:09:59
  TRACK 09 AUDIO
    TITLE "0:"
    INDEX 01 00:12:16
  TRACK 10 AUDIO
    TITLE "8:cjc124_3076"
    INDEX 01 00:12:34
  TRACK 11 AUDIO
    TITLE "0:"
    INDEX 01 00:15:01
  TRACK 12 AUDIO
    TITLE "7:cjc124_3077"
    INDEX 01 00:15:38
  TRACK 13 AUDIO
    TITLE "0:"
    INDEX 01 00:18:72
  TRACK 14 AUDIO
    TITLE "8:cjc124_3078"
    INDEX 01 00:19:15
  TRACK 15 AUDIO
    TITLE "0:"
    INDEX 01 00:22:64
  TRACK 16 AUDIO
    TITLE "7:cjc124_3079"
    INDEX 01 00:23:30
  TRACK 17 AUDIO
    TITLE "0:"
    INDEX 01 00:26:07
  TRACK 18 AUDIO
    TITLE "8:cjc124_3080"
    INDEX 01 00:26:22
  TRACK 19 AUDIO
    TITLE "0:"
    INDEX 01 00:28:12
  TRACK 20 AUDIO
    TITLE "7:cjc124_3081"
    INDEX 01 00:28:49
  TRACK 21 AUDIO
    TITLE "0:"
    INDEX 01 00:31:20
  TRACK 22 AUDIO
    TITLE "8:cjc124_3082"
    INDEX 01 00:31:41
  TRACK 23 AUDIO
    TITLE "0:"
    INDEX 01 00:34:00
  TRACK 24 AUDIO
    TITLE "7:cjc124_3083"
    INDEX 01 00:34:36
  TRACK 25 AUDIO
    TITLE "0:"
    INDEX 01 00:37:67
  TRACK 26 AUDIO
    TITLE "8:cjc124_3084"
    INDEX 01 00:38:20
  TRACK 27 AUDIO
    TITLE "0:"
    INDEX 01 00:41:40
  TRACK 28 AUDIO
    TITLE "7:cjc124_3085"
    INDEX 01 00:42:04
  TRACK 29 AUDIO
    TITLE "0:"
    INDEX 01 00:44:52
  TRACK 30 AUDIO
    TITLE "8:cjc124_3086"
    INDEX 01 00:44:69
  TRACK 31 AUDIO
    TITLE "0:"
    INDEX 01 00:47:62
  TRACK 32 AUDIO
    TITLE "7:cjc124_3087"
    INDEX 01 00:48:24
  TRACK 33 AUDIO
    TITLE "0:"
    INDEX 01 00:51:36
  TRACK 34 AUDIO
    TITLE "8:cjc124_3088"
    INDEX 01 00:51:56
  TRACK 35 AUDIO
    TITLE "0:"
    INDEX 01 00:54:52
  TRACK 36 AUDIO
    TITLE "7:cjc124_3089"
    INDEX 01 00:55:14
  TRACK 37 AUDIO
    TITLE "0:"
    INDEX 01 00:58:34
  TRACK 38 AUDIO
    TITLE "8:cjc124_3090"
    INDEX 01 00:58:52
  TRACK 39 AUDIO
    TITLE "0:"
    INDEX 01 01:01:25
  TRACK 40 AUDIO
    TITLE "7:cjc124_3091"
    INDEX 01 01:01:62
  TRACK 41 AUDIO
    TITLE "0:"
    INDEX 01 01:05:22
  TRACK 42 AUDIO
    TITLE "8:cjc124_3092"
    INDEX 01 01:05:40
  TRACK 43 AUDIO
    TITLE "0:"
    INDEX 01 01:08:60
  TRACK 44 AUDIO
    TITLE "7:cjc124_3093"
    INDEX 01 01:09:24
  TRACK 45 AUDIO
    TITLE "0:"
    INDEX 01 01:12:26
  TRACK 46 AUDIO
    TITLE "8:cjc124_3094"
    INDEX 01 01:12:46
  TRACK 47 AUDIO
    TITLE "0:"
    INDEX 01 01:15:31
  TRACK 48 AUDIO
    TITLE "7:cjc124_3095"
    INDEX 01 01:15:70
  TRACK 49 AUDIO
    TITLE "0:"
    INDEX 01 01:19:46
  TRACK 50 AUDIO
    TITLE "8:cjc124_3096"
    INDEX 01 01:19:62
  TRACK 51 AUDIO
    TITLE "0:"
    INDEX 01 01:23:09
  TRACK 52 AUDIO
    TITLE "7:cjc124_3097"
    INDEX 01 01:23:48
  TRACK 53 AUDIO
    TITLE "0:"
    INDEX 01 01:26:05
  TRACK 54 AUDIO
    TITLE "8:cjc124_3098"
    INDEX 01 01:26:25
  TRACK 55 AUDIO
    TITLE "0:"
    INDEX 01 01:29:33
  TRACK 56 AUDIO
    TITLE "7:cjc124_3099"
    INDEX 01 01:29:70
  TRACK 57 AUDIO
    TITLE "0:"
    INDEX 01 01:32:39
  TRACK 58 AUDIO
    TITLE "8:cjc124_3100"
    INDEX 01 01:32:60
  TRACK 59 AUDIO
    TITLE "0:"
    INDEX 01 01:35:37
  TRACK 60 AUDIO
    TITLE "7:cjc124_3101"
    INDEX 01 01:36:01
  TRACK 61 AUDIO
    TITLE "0:"
    INDEX 01 01:39:21
  TRACK 62 AUDIO
    TITLE "8:cjc124_3102"
    INDEX 01 01:39:39
  TRACK 63 AUDIO
    TITLE "0:"
    INDEX 01 01:42:18
  TRACK 64 AUDIO
    TITLE "7:cjc124_3103"
    INDEX 01 01:42:57
  TRACK 65 AUDIO
    TITLE "0:"
    INDEX 01 01:45:10
  TRACK 66 AUDIO
    TITLE "8:cjc124_3104"
    INDEX 01 01:45:28
  TRACK 67 AUDIO
    TITLE "0:"
    INDEX 01 01:47:70
